<?xml version="1.0" encoding="UTF-8"?>
<svg viewBox="0 0 225.81747 388.21878" xmlns="http://www.w3.org/2000/svg">
 <g transform="translate(-562.99 -18.401)">
  <path d="m665.89 18.401-0.125 2.4375c-0.05456 1.3412-0.16707 5.3858-0.25 9l-0.125 6.5625-3.6875-3.8125c-4.2635-4.4374-4.8316-4.6146-4.8125-1.5625 0.00776 1.2375 1.7461 4.1435 3.8438 6.4688 3.3594 3.724 3.8312 4.8975 4.0312 9.8438 0.15108 3.7343-0.14207 5.4024-0.84375 4.9688-0.58033-0.35866-1.0312-1.3012-1.0312-2.0938s-0.44999-1.4375-1-1.4375-0.99999-1.7423-1-3.875c0-4.4384-2.5177-7.5401-4.0938-5.0625-0.50231 0.78964-0.70998 1.9655-0.46875 2.625 0.53282 1.4568-2.3452 0.50716-4.2812-1.4062-0.72678-0.71827-1.8982-1.2812-2.625-1.2812-2.7047 0-2.2617 2.821 1.0312 6.5938 3.9167 4.4875 4.1285 5.3833 1.5312 6.0625-1.2761 0.33371-1.714 1.1099-1.375 2.4062 0.56267 2.1517 3.246 2.5353 5.0625 0.71875 1.3614-1.3614 1.396-1.2899 1.625 2.4688 0.19109 3.1369 0.01757 3.2072-3.4062 1.25-3.3521-1.9162-4-1.8683-4 0.40625 0 1.0601 1.4625 3.0696 3.25 4.4688 2.4386 1.9088 2.7097 2.4142 1.125 2-1.3797-0.36061-2.3226-0.00122-2.7187 1.0312-0.86093 2.2435-1.5574 2.058-8.2188-2.2812-3.2693-2.1296-6.4373-3.6963-7.0312-3.4688-2.0818 0.79759-0.76008 4.6139 2.1562 6.2188l2.9375 1.5938-2.6875 0.3125c-1.466 0.17504-2.9007 0.94006-3.1875 1.6875-0.56101 1.462 1.9392 2.8947 3.4375 1.9688 0.50037-0.30924 0.93751-0.08246 0.9375 0.5s0.78751 1.0816 1.75 1.125c1.2708 0.05733 1.3599 0.2226 0.34375 0.625-1.0601 0.41983-0.85158 0.98658 0.90625 2.3125l2.3438 1.75-4.1875 0.71875c-4.3082 0.72787-5.2896 2.3351-2.7188 4.4688 0.96882 0.80405 1.9911 0.8846 3.125 0.25 1.886-1.0555 5.4375-0.46535 5.4375 0.90625 0 0.48585 0.90001 0.90625 2 0.90625s2-0.45 2-1 1.0125-0.98705 2.25-0.96875l2.25 0.03125-2.4687 2.0312c-1.918 1.5962-2.1567 2.2181-1.0938 2.875 1.5011 0.92771 4.0929 0.24939 5.375-1.4062 0.46389-0.59903 0.58496 0.15216 0.25 1.6875-0.4996 2.2901-0.27513 2.75 1.4062 2.75 1.1105 0 2.0503-0.5625 2.0938-1.25 0.05387-0.85303 0.24634-0.80009 0.625 0.15625 0.40502 1.023 0.91016 0.74449 1.8438-1l1.2812-2.4062 1.25 2.75c0.6873 1.5085 0.9326 3.0674 0.53125 3.4688s-3.9863 0.89264-7.9688 1.0938c-6.6637 0.3365-7.6295 0.13522-12.031-2.6562-4.3828-2.7795-7.5937-3.2442-7.5938-1.0938 0 0.47359 1.2375 1.577 2.75 2.4375l2.75 1.5625-3.5-0.65625c-3.462-0.63356-9.2864-3.6335-11.844-6.125-0.72678-0.70808-2.1893-1.2812-3.25-1.2812-2.0378 0-2.5662 1.9338-0.96875 3.5312 0.59998 0.6-0.93715 1.0839-4.1875 1.2812-2.8305 0.17182-5.5268 0.53937-5.9688 0.8125-3.2881 2.0322 4.8144 5.7227 10.688 4.875l4.0312-0.5625-2.8125 1.5938c-1.7029 0.96641-2.7033 2.2598-2.5 3.2812 0.48673 2.4449 4.8074 1.6256 7.5625-1.4375 1.2821-1.4254 3.0159-2.3592 4-2.125 1.38 0.32846 1.2013 0.66075-0.90625 1.5312-3.4053 1.4065-4.4385 3.0519-2.375 3.8438 0.89147 0.34209 1.3969 1.1977 1.125 1.9062s0.17845 1.5405 0.96875 1.8438 1.4375 0.15609 1.4375-0.3125c0-0.81747 3.2313-2.2184 5.6562-2.4688 0.63793-0.06587 2.1004-0.9909 3.25-2.0312s2.0938-1.5558 2.0938-1.1562c0 1.038-2.1853 3.0795-4.7812 4.4688-1.2262 0.65621-2.2187 1.6396-2.2188 2.1875 0 1.8862 3.079 2.179 4.9688 0.46875 1.8042-1.6328 1.8651-1.6187 1.3438 0.375-0.76304 2.9179 1.2837 2.6275 3.3125-0.46875 1.269-1.9368 1.8912-2.241 2.5312-1.25 0.69492 1.0759 0.97909 1.0665 1.6875-0.03125 0.47425-0.7349 1.7117-1.2257 2.75-1.0938 4.0349 0.51272 9.3394-3.0938 9.5-6.4688 0.08662-1.8205 0.18598-1.7662 0.8125 0.40625 0.59526 2.064 0.10421 3.0655-2.8438 5.7188-1.9639 1.7676-6.3463 4.6728-9.75 6.4688l-6.1875 3.25-4.8125-2.4062c-2.6463-1.3217-5.375-2.4943-6.0625-2.625-1.7845-0.33915-1.5437 1.5925 0.5 4 1.5746 1.8549 1.5664 1.9054 0.03125 0.71875-0.93841-0.72537-2.0865-1.0754-2.5625-0.78125s-2.1203-0.1094-3.6562-0.90625c-3.6833-1.9109-4.8323-1.817-4.1562 0.3125 0.44816 1.4118-0.02229 1.728-2.4375 1.6562-1.6466-0.04894-3.2275-0.35251-3.5312-0.65625-1.2174-1.2174-4.4375 0.57531-4.4375 2.4688 0 1.537 0.48602 1.8892 2.0938 1.4688 2.0075-0.52496 2.0201-0.4774 0.34375 1.375-1.8102 2.0003-1.5133 2.2758 2.2812 1.9688 1.7443-0.14113 2.106 0.19626 1.5938 1.5312-0.54045 1.4084-0.19553 1.6458 1.875 1.25s2.4243-0.15922 2.0312 1.3438c-0.5343 2.0432 0.09912 2.2634 2.5938 0.9375 2.4517-1.3031 5.547 2.8358 3.5312 4.7188-1.1279 1.0536-1.47 1.0119-1.9062-0.125-0.29916-0.7796-2.0711-1.4263-4.0312-1.5-1.9226-0.07227-3.2672 0.2672-2.9688 0.75s-0.33676 0.6316-1.4375 0.34375c-2.5255-0.66043-2.6036 0.85833-0.125 2.4062 1.312 0.81939 1.7188 1.9202 1.375 3.7188-0.60485 3.1641-0.7572 3.1905-4.4375 0.09375-1.6341-1.375-3.6234-2.5-4.4062-2.5-1.6761 0-1.7614 0.49082-0.46875 2.9062 1.0494 1.9608 0.39107 2.008-7.1875 0.5625-2.4697-0.47108-3.75-0.33998-3.75 0.375 0 1.2947 5.1925 4.1562 7.5625 4.1562 1.367 0 1.4472 0.25211 0.4375 1.4688-0.99351 1.1971-0.95843 1.6108 0.21875 2.0625 0.80488 0.30886 1.8804 0.46749 2.375 0.375 2.0888-0.39062 3.3898 0.17624 3.1562 1.3438-0.15349 0.76743 0.81166 1.2217 2.5 1.1875 2.116-0.04285 2.7557 0.41828 2.7812 2 0.03195 1.9744 0.11101 1.955 2-0.3125 1.5612-1.874 1.9688-2.013 1.9688-0.6875 0 0.91839 0.44895 1.403 1 1.0625s1.428 0.54657 1.9688 1.9688 1.6668 2.8365 2.5 3.1562 1.5313 1.2026 1.5312 1.9688 0.72313 1.4062 1.625 1.4062 2.2078 0.76357 2.9062 1.7188c1.1971 1.6372 1.4189 1.6228 3.625-0.25l2.3438-1.9688-1.7812 2.0938c-1.0764 1.2782-4.4114 2.733-8.625 3.75-8.8066 2.1256-10.934 2.0589-14.531-0.3125-3.332-2.1965-4.9578-1.7894-4.0625 1.0312 0.50266 1.5837 0.12032 1.9375-2.25 1.9375-1.5771 0-3.3229-0.44794-3.875-1-0.67166-0.67166-1.6436-0.53992-2.9375 0.40625-1.8566 1.3576-1.8116 1.4836 1.2812 3.25 2.3316 1.3317 3.0699 2.3433 2.6562 3.6562-0.3686 1.17-0.08155 1.7427 0.78125 1.625 2.8954-0.39492 4.0183 0.09927 3.4688 1.5312-0.95939 2.5001 2.6913 3.6926 5.4688 1.7812 1.822-1.2538 2.0913-1.3133 1.1875-0.1875-1.6888 2.1037-0.06507 4.3027 2.5625 3.4688 3.7869-1.2019 4.8075 0.72077 1.0938 2.0625-4.7704 1.7235-9.5291 1.6896-11.312-0.09375-1.9726-1.9726-5.0355-1.9968-4.2812-0.03125 0.46675 1.2163-0.22978 1.3789-3.9062 0.875-5.3801-0.73742-6.0539 0.92512-1.0938 2.7188 2.4059 0.86997 3.257 1.7157 2.9375 2.9375-0.53398 2.042 2.6244 3.177 5.0625 1.8125 1.3264-0.74231 1.6563-0.45276 1.6562 1.5312 0 2.0274 0.36605 2.3744 2.1562 1.9062 1.7686-0.4625 2.0262-0.26518 1.4688 1.1875-0.54646 1.424-0.26707 1.7025 1.3438 1.2812 1.1082-0.2898 2.0313-0.12351 2.0312 0.375 0 1.7523 2.1153 0.87395 4.7812-1.9688 3.2112-3.4241 5.1123-4.1807 7.4688-2.9688 2.7391 1.4088 2.0543 2.5475-1.25 2.0625-3.4439-0.50546-3.9516 1.0178-1.4688 4.5625 1.4521 2.0731 1.4456 2.2188-0.40625 2.2188-1.0919 0-2.675 0.675-3.5 1.5s-2.1682 1.5-3 1.5-1.7752 0.42212-2.0938 0.9375-2.331 0.90451-4.4688 0.875-4.4696 0.30631-5.1875 0.75-2.763 0.71284-4.5312 0.59375c-2.6627-0.17932-3.2637 0.17711-3.5312 2.0625-0.2324 1.6378-1.0138 2.297-2.8125 2.375-1.375 0.05964-2.95 0.2338-3.5 0.375s-1.7875 0.1604-2.75 0.0625-1.75 0.22152-1.75 0.6875c0 1.3257 5.5341 4.2812 8.0312 4.2812 2.1874 0 2.2278 0.05629 0.46875 2-1.7663 1.9517-1.7478 2 0.8125 2 1.9594 0 2.4757 0.37303 2.0312 1.5312-0.48509 1.2641-0.06355 1.4285 2.2812 0.875 1.5821-0.37346 3.1-0.66163 3.375-0.65625 3.1187 0.0611 3.8436 0.40373 3.375 1.625-1.0444 2.7216 1.5458 2.6453 3.0312-0.09375 1.414-2.6074 1.4937-2.6418 1.5312-0.53125 0.02202 1.2375 0.40001 2.2835 0.8125 2.3438 6.1103 0.89314 7.1127 0.59694 8.3438-2.375l1.25-3 0.875 2.375 0.875 2.4062 1.9375-2.5c1.918-2.4965 1.9153-2.4994 1.9375-0.25 0.02999 3.0343 1.8127 2.862 2.5938-0.25 0.3451-1.375 1.0709-2.5 1.5938-2.5s0.62629 0.48495 0.25 1.0938c-0.47799 0.77341 0.29621 0.90401 2.5625 0.40625 2.4063-0.52851 3.1567-0.40748 2.8438 0.53125-0.61441 1.8432-6.8775 4.9688-9.9688 4.9688-1.4622 0-2.8614 0.5625-3.125 1.25-0.29461 0.76835-2.2492 1.2054-5.0938 1.1562-2.5452-0.04398-4.625 0.2703-4.625 0.6875 0 1.9246 3.4708 4.007 6.2188 3.7188 1.633-0.17129 3.0435 0.08333 3.125 0.59375 0.26584 1.6655-5.597 2.6023-19.844 3.1562-16.055 0.6243-22.5 1.3274-22.5 2.4062 0 0.41596-1.125 0.54409-2.5 0.28125-1.4201-0.27146-2.5-0.02051-2.5 0.59375 0 1.4017 3.267 3.1562 5.9062 3.1562 1.1362 0 2.0938 0.45 2.0938 1s-0.48951 1-1.0625 1-2.0355 0.92922-3.25 2.0938l-2.1875 2.125 3.25-0.4375c2.1498-0.29378 3.25-0.03446 3.25 0.78125 0 0.74086 0.79848 1.033 2 0.71875 1.1182-0.29241 2-0.03055 2 0.59375 0 1.615 2.5438 1.3796 4-0.375 0.68469-0.825 1.6821-1.5 2.25-1.5s0.31652 0.80669-0.59375 1.8125-1.6562 2.1308-1.6562 2.5c0 1.0599 3.814 0.79752 4.5-0.3125 0.99-1.6018 2.3143-1.1604 3 1 0.80301 2.5301 1.9442 2.514 5.5625-0.0625l2.9062-2.0625-0.625 3.0625c-0.75302 3.7651 1.0641 4.0693 5.125 0.875 2.6677-2.0984 2.7426-2.0964 1.6875-0.125-1.2423 2.3212-0.64457 3.424 1.4375 2.625 0.77823-0.29863 2.0882 0.00861 2.9062 0.6875 1.0332 0.8575 1.5 0.90479 1.5 0.125 0-0.61734 0.67501-1.125 1.5-1.125s1.5 0.61877 1.5 1.4062c0 0.97077 0.88547 1.3362 2.75 1.125 10.41-1.1788-3.0538 4.8745-15.156 6.8125-7.9121 1.267-8.706 1.2186-11.312-0.5-1.5405-1.0157-3.3437-1.8401-4.0312-1.8438-2.0684-0.0109-1.4081 1.9912 1 3.0312 1.6521 0.71351 1.0541 0.78987-2.25 0.28125-2.475-0.38098-5.625-0.6311-7-0.5625s-4.7315-0.52456-7.4375-1.3125-5.0707-1.3043-5.25-1.125c-1.0434 1.0434 5.3587 5.167 8.9375 5.75l4.25 0.6875-3.75 0.125c-2.611 0.08715-3.75 0.5806-3.75 1.625 0 0.825 0.78751 1.5725 1.75 1.6562s2.2 0.24723 2.75 0.375 1.6448 0.2803 2.4375 0.34375c1.0606 0.08489 0.92739 0.48754-0.5 1.5312-2.4712 1.807-1.2976 3.1055 1.4688 1.625 1.7212-0.92117 2.0938-0.82596 2.0938 0.53125 0 1.2825 0.71553 1.5439 3.25 1.1875 1.7875-0.25136 4.15-0.7838 5.25-1.1875 1.9714-0.72353 1.9446-0.71528 0.03125 0.84375-1.9486 1.5878-1.531 1.9556 1.7188 1.625 0.99611-0.10133 1.75 0.51666 1.75 1.4062 0 2.139 0.80972 1.9623 3.1875-0.6875l2.0312-2.25-1.625 2.7188c-0.88478 1.4932-1.5937 3.1699-1.5938 3.75 0 1.5459 4.9058 0.40454 7.25-1.6875 1.9646-1.7533 1.9795-1.7208 1.2188 0.71875-1.0571 3.3899-2.2848 4.1061-11.5 6.875-7.6546 2.3-8.1164 2.3286-12.25 0.75-4.5057-1.7208-10.719-2.2113-10.719-0.84375 0 0.44 0.5232 1.367 1.1875 2.0312 0.81209 0.81209-0.52481 0.68487-4.0938-0.375-2.9194-0.86698-5.9915-1.327-6.8438-1-1.3069 0.50152-1.1887 0.9988 0.75 3.0625l2.2812 2.4375-3.375-0.96875c-4.3505-1.2477-9.636-1.2462-10.406 0-0.79491 1.2862 5.8928 4.025 9.8438 4.0312h3.1562l-2.9375 2.3438c-2.8996 2.3201-2.8718 5.364 0.03125 4.25 0.96566-0.37056 1.4063 0.23335 1.4062 1.9375 0 1.7715 0.5223 2.4688 1.9062 2.4688 1.0607 0 2.6258 0.68828 3.4688 1.5312 1.2724 1.2724 1.8699 1.307 3.5625 0.25 1.1213-0.70027 2.0625-1.6136 2.0625-2.0312s0.78821 0.03751 1.7812 1c1.9148 1.8559 2.4605 4.25 0.96875 4.25-0.4908 0-0.56378 0.48495-0.1875 1.0938 0.47563 0.7696-0.26479 0.9147-2.4375 0.4375-1.994-0.43796-3.125-0.31376-3.125 0.375 0 0.61269-1.9458 1.0938-4.5 1.0938-4.6862 0-5.5707 0.86649-3 3 1.0015 0.83115 3.1171 1.0517 6.25 0.65625l4.75-0.59375-3.7188 1.9688c-2.5824 1.3692-3.5386 2.4534-3.125 3.5312 0.37188 0.96909 1.2059 1.2942 2.2188 0.875 0.89153-0.36901 2.3-0.7726 3.125-0.90625s0.93751-0.04889 0.25 0.1875c-2.533 0.87093-1.2248 2.4767 1.5 1.8438 1.968-0.45714 2.334-0.35471 1.2812 0.34375-2.6456 1.7553-0.296 2.2648 2.875 0.625 1.7011-0.87968 3.0938-1.1745 3.0938-0.65625s-0.56249 1.1607-1.25 1.4062-0.90222 0.8183-0.46875 1.2812 2.0688 0.34916 3.6562-0.25c2.3643-0.89243 2.8138-0.83102 2.375 0.3125-0.38612 1.0062-0.02923 1.1934 1.3125 0.71875 1.5604-0.55206 1.66-0.42131 0.5625 0.75-1.023 1.0917-4.4662 1.3534-15.75 1.1875-8.7312-0.1284-14.437 0.16815-14.438 0.75 0 0.52931 0.69823 0.96876 1.5625 0.96875s2.1972 0.63466 2.9688 1.4062c1.2038 1.2038 1.1791 1.4876-0.15625 2-0.85585 0.32842-2.9762 0.58533-4.7188 0.59375-3.674 0.01776-6.1957 1.3209-5.3125 2.75 1.0911 1.7654 6.0538 2.0864 10.156 0.65625 5.4695-1.9067 5.7657-1.797 2.9375 1.0312-3.5265 3.5265-3.2696 5.6526 0.53125 4.5625 1.6321-0.46807 3.4321-1.149 4-1.5s1.0724 0.19255 1.1562 1.1875 0.22049 2.3201 0.28125 2.9688 0.41382 1.5076 0.78125 1.875c0.78825 0.78826 6.8125-2.584 6.8125-3.8125 0-0.46388 0.40852-0.57692 0.9375-0.25 0.61572 0.38054 0.61572 1.5055 0 3.125-0.52898 1.3913-0.93749 2.9796-0.9375 3.5312 0 1.3217 4.7257-2.0999 9.4688-6.8438 3.5381-3.5387 4.044-2.9338 0.75 0.90625-0.80804 0.94202-1.1686 2.4784-0.8125 3.4062 0.57515 1.4988 0.90495 1.4133 3.1875-0.71875l2.5938-2.375-0.34375 2.5c-0.31705 2.2955-0.99804 2.597-8.3438 3.8125-5.1621 0.85416-8.5422 0.9858-9.5312 0.375-2.5067-1.548-7.9687-2.467-7.9688-1.3438 0 0.55545 0.78751 1.2228 1.75 1.4688s-0.49999 0.24165-3.25 0c-4.0203-0.35326-4.755-0.20195-3.75 0.8125 1.9121 1.9299 1.4835 2.6476-1.25 2.125-3.2322-0.61787-7.7692 0.53673-7 1.7812 0.32995 0.53387 1.6242 0.96876 2.875 0.96875 4.2745 0 3.674 1.3763-1.5312 3.4688-8.8724 3.5666-6.9365 6.2191 2.1875 3 4.6181-1.6294 6.4241-1.347 3.0312 0.46875-1.1471 0.61392-2.0625 1.8222-2.0625 2.6875 0 1.2062 0.60569 1.4209 2.6562 0.90625 2.36-0.59233 2.5372-0.49412 1.375 0.90625-2.6946 3.2468 0.16298 3.2543 4.625 0 2.0829-1.5191 2.167-1.505 1.5938 0.71875-0.53764 2.0855-0.42952 2.187 1.0938 0.9375 1.5039-1.2336 1.6055-1.1769 1 0.5-0.59774 1.6553-0.36164 1.6021 1.8125-0.375 2.5474-2.3165 4.1141-2.1211 3.1562 0.375-0.76394 1.9908 1.633 1.7259 5.4375-0.59375 1.8111-1.1043 3.25-1.4845 3.25-0.875 0 0.67729 1.047 0.85403 2.75 0.46875 1.8608-0.42098 2.265-0.33137 1.25 0.28125-0.825 0.49795-3.975 1.4071-7 2.0312-6.5125 1.3438-8.535 2.4383-7.5312 4.0625 0.68942 1.1155 2.0339 0.99433 8.0312-0.625 1.5318-0.41361 1.2393 0.22138-1.25 2.625-1.7875 1.726-3.25 3.3473-3.25 3.625 0 0.99362 5.56-0.24069 8.75-1.9375 3.5053-1.8645 4.0447-1.2939 1.7188 1.7812-2.031 2.6852-1.8358 3.869 0.53125 3.25 1.2999-0.33992 2-0.0078 2 0.90625 0 1.8705 0.91555 1.7689 3.25-0.34375 1.8458-1.6704 1.9289-1.6596 1.5938 0.25-0.53551 3.0512 5.0127 2.1312 7.9688-1.3125l2.3125-2.6875-0.65625 3.25c-0.86843 4.3009 1.6418 4.4137 5.5312 0.25 1.5413-1.65 2.9331-3.0004 3.125-3s0.41726 1.1639 0.5 2.5938c0.22758 3.9321 1.8568 4.9926 3.9375 2.5625 1.6428-1.9186 1.8782-1.9557 3.0938-0.375 1.2035 1.565 1.3395 1.5411 1.9062-0.46875 0.36659-1.3 1.1583-1.9672 1.9688-1.6562 0.86238 0.33092 1.6036-0.45259 2.0312-2.1562 0.46336-1.8462 0.92881-2.3111 1.4688-1.4375 0.43203 0.69904 1.7216 1.4177 2.875 1.5938 1.6287 0.24856 2.5848-0.66454 4.2812-4.1562 2.1909-4.5095 4.5024-6.2491 3.3125-2.5-0.76874 2.4221-0.19042 2.4859 3.0312 0.375 1.3556-0.88826 2.4987-2.5758 2.5625-3.75 0.09282-1.7083 0.22592-1.785 0.59375-0.375 0.75977 2.9127 2.3112 0.89068 2.3438-3.0625 0.02465-2.9925 0.20488-3.3563 1.0312-1.9375 0.5606 0.9625 1.9565 1.75 3.0938 1.75 1.9704 0 2.0472 0.36511 1.4062 7.75-0.44787 5.1603-1.4971 9.3696-3.125 12.594-0.95314 1.8878-1.7535 3.5688-2.1562 4.5h24.875c1.1029-0.88294 0.60656-2.4331-0.53125-5.1562-1.7733-4.2442-2.4572-12.91-1.0625-13.375 0.54503-0.18167 1.7722 1.001 2.75 2.6562 1.8229 3.0859 4.0642 4.2231 3.0312 1.5312-1.1812-3.078 0.67904-1.3926 2.0312 1.8438 1.0792 2.5829 1.9435 3.3541 3.75 3.2188 1.2958-0.09708 3.0043 0.29312 3.7812 0.875 1.0128 0.75853 1.5258 0.72642 1.8125-0.125 0.26556-0.78862 1.0571-0.53669 2.3438 0.75 2.574 2.574 3.8555 2.4504 3.25-0.3125-0.28816-1.3148-0.14523-1.8145 0.34375-1.1875 1.1528 1.4782 4.3438 2.5538 4.3438 1.4688 0-1.0095 5.5198-0.65197 8.4062 0.53125 1.5192 0.62275 1.8001 0.42698 1.3125-0.84375-0.33959-0.88495-0.09414-1.7895 0.5625-2.0312 0.91184-0.33578 0.92351-0.76922-0.03125-1.7812-2.27-2.4061-1.3294-2.717 2.4062-0.8125 4.1295 2.1054 5.2816 1.7964 3.2812-0.84375-1.0702-1.4124-1.085-1.5267-0.03125-0.59375 0.728 0.64452 1.9295 0.94711 2.6875 0.65625s1.4063-0.12873 1.4062 0.375 0.60952 1.7656 1.375 2.8125c1.1992 1.64 1.6387 1.7129 3.0625 0.53125 1.4354-1.1913 1.839-1.0457 3.25 0.96875l1.625 2.3125 0.90625-2.4062c0.83516-2.2359 0.98947-2.2798 2.1875-0.65625 1.5829 2.1452 2.2904 2.1784 4.25 0.21875 1.219-1.219 1.2872-1.8255 0.3125-3-0.67196-0.80967-0.92417-1.4687-0.5625-1.4688s0.13837-1.0125-0.5-2.25c-0.97143-1.8832-0.60648-1.7734 2.2188 0.78125 6.2232 5.6272 6.6336 5.8352 8.4062 4.0625 0.88295-0.88295 1.2519-2.1461 0.84375-2.8438-0.41782-0.71431 0.09593-0.5952 1.1875 0.28125 5.2861 4.2443 10.638 5.0796 7.0312 1.0938-1.6285-1.7995-1.5742-1.9398 1.0312-2.5938l2.7188-0.6875-2.9375-2.375c-3.8411-3.1398-1.7872-3.1476 3.7188 0 2.3936 1.3684 4.9375 2.4934 5.625 2.5 2.0183 0.01945 1.4358-1.5752-1-2.75-2.0251-0.97664-1.8718-1.0953 1.7812-1.1562 2.2324-0.03722 4.9324-0.72373 6-1.5312 1.8468-1.3968 1.823-1.4685-1.0312-1.5-4.283-0.04736-19.515-2.8205-22.688-4.125-3.8863-1.5982-4.6229-4.0438-0.78125-2.5938 3.3705 1.2722 5.0751 0.22068 2.5938-1.5938-1.4402-1.0531-0.97605-1.1788 2.8438-0.875 4.8762 0.38782 5.9151-0.84137 2.2812-2.6875-1.9468-0.98903-1.6166-1.1141 2.625-0.90625 5.7235 0.28052 7.3367-1.6008 2.4062-2.8125l-3.2812-0.8125 3.25-0.375c3.8058-0.45422 4.1416-1.483 1-3.0938-1.838-0.94233-1.0597-1.0704 4.25-0.625 5.9849 0.50209 6.3185 0.42215 4.5312-1-1.0676-0.8495-2.7251-1.5312-3.6875-1.5312s-2.037-0.4963-2.4062-1.0938c-0.42066-0.68065 0.20732-1.0297 1.6875-0.90625 4.1783 0.3484 6.875 0.01847 6.875-0.875 0-0.47893-3.1701-1.182-7.0312-1.5625s-6.8059-1.0556-6.5312-1.5 3.1564-1.404 6.4062-2.125c6.13-1.3599 10.01-3.3957 8.7812-4.625-0.62817-0.62817-6.1927 0.27854-13.625 2.25-2.2837 0.60577-2.2256 0.41769 0.90625-2.2812 5.1535-4.4412 2.245-4.8979-5.1875-0.8125-7.4628 4.1021-11.736 4.437-20 1.5938-9.3775-3.2263-24.587-10.947-25.719-13.062-1.4019-2.6194-0.60517-2.5417 1.9375 0.1875 1.1214 1.2037 2.0625 1.821 2.0625 1.375s0.67501-0.24718 1.5 0.4375c1.2394 1.0286 1.5 0.9326 1.5-0.5625 0-1.5066 0.51186-1.3203 3.125 1.125l3.125 2.9375-0.59375-3.2188c-0.59881-3.1734-0.55858-3.2052 2.125-2.0625 1.4948 0.63648 3.3938 1.6775 4.2188 2.3125 3.8775 2.9845 4.3275 2.9185 3.625-0.59375-0.53065-2.6532-0.4271-3.1146 0.53125-2.1562 1.7402 1.7402 5.8438 1.543 5.8438-0.28125 0-1.8634 1.6148-1.9572 2.6875-0.15625 0.43983 0.73842 2.05 2.1189 3.5625 3.0938 2.2683 1.462 2.75 1.5168 2.75 0.3125 0-0.80301-0.89999-2.2545-2-3.25s-2-2.2873-2-2.8438 0.25325-0.71546 0.59375-0.375 1.3295-0.07947 2.1875-0.9375c1.0825-1.0825 2.7077-1.4119 5.3125-1.0625 2.5912 0.34755 3.926 0.08192 4.2812-0.84375 0.39203-1.0216 1.3018-1.1263 3.8125-0.40625 8.8196 2.5294 10.443-0.35395 1.9375-3.4375-5.75-2.0846-6.4773-3.1377-1.0938-1.5938 6.8419 1.9622 15.742 0.47675 11.969-2-0.825-0.54158-3.525-1.0515-6-1.125-3.821-0.11347-4.071-0.21364-1.5938-0.75 1.6046-0.34743 3.1184-1.26 3.375-2.0312 0.38981-1.1715-1.1882-1.3041-9.6875-0.71875-10.008 0.68928-10.168 0.68924-8.9375-1.2812 1.8315-2.9327 0.57314-3.4406-4.4062-1.75-2.6921 0.91401-6.1474 1.2978-8.8438 0.96875-5.7809-0.70557-24.909-7.1151-27.156-9.0938-2.3492-2.0681-2.2169-3.5017 0.25-2.7188 1.1215 0.35594 2 0.17467 2-0.40625 0-1.0845 1.4979-0.77267 6.5 1.4062 1.65 0.71873 5.2717 1.3286 8.0625 1.3438s5.4908 0.12137 6 0.21875c2.3408 0.4476 2.5875-0.23585 0.84375-2.3125-1.2538-1.4931-0.86056-1.3249 1.1562 0.5 3.4589 3.1299 4.4375 3.3906 4.4375 1.2188 0-1.32 0.32187-1.3119 2.5625 0.15625 1.5089 0.98869 2.8621 1.2994 3.25 0.75 0.36556-0.5177 2.0118-1.5254 3.6562-2.25 2.8706-1.265 2.9165-1.363 1.0625-2.7188-2.264-1.6555-1.6879-1.7921 1.875-0.4375 1.9363 0.73618 2.5938 0.66659 2.5938-0.3125 0-0.79057 2.5382-1.8295 6.5-2.6562 3.575-0.74603 6.5-1.7656 6.5-2.25s0.42313-0.58723 0.96875-0.25 1.7909 0.16173 2.75-0.375c1.5245-0.85315 1.3873-1.0805-1.0312-1.6875-2.0856-0.52345-2.6202-1.1365-2.1875-2.5 0.42466-1.338-0.02209-1.8751-1.7188-2.125-1.6193-0.23856-0.46918-0.94058 3.9375-2.3438 6.829-2.1744 8.5162-4.1424 2.5312-2.9688-5.5262 1.0837-19.25 1.3303-19.25 0.34375 0-0.46827 0.45001-0.84374 1-0.84375s1-0.45476 1-1-2.1375-0.95947-4.75-0.90625c-6.5614 0.13365-17.051-2.0597-17.688-3.7188-0.35824-0.93356 0.28822-1.375 1.9688-1.375 1.3577 0 2.4688-0.43602 2.4688-0.96875s0.67501-0.72282 1.5-0.40625 1.5 0.04629 1.5-0.59375c0-0.76703 0.75379-0.61983 2.2188 0.40625 1.2224 0.85618 3.3598 1.5496 4.75 1.5312l2.5312-0.03125-2.3125-1.9375-2.2812-1.9062 4.7812-0.3125 4.8125-0.34375-3.5-1.6875-3.5-1.6875 3.0625-0.03125c1.9516-0.02484 3.9472-0.9449 5.4375-2.5312 1.2918-1.375 2.8094-2.5 3.4062-2.5s1.6802-0.91878 2.375-2.0312c1.8283-2.9276-0.50047-3.5145-6.25-1.5625-6.2003 2.1051-7.4853 2.0468-6.8438-0.40625 0.63171-2.4157 0.46721-2.429-5.8125-0.375-4.777 1.5625-5.2739 1.517-12.906-0.65625-10.293-2.9308-12.931-5.6761-5-5.2188 0.81697 0.04711 1.8005-0.40516 2.1875-1.0312 0.49218-0.79638 1.3206-0.60908 2.7188 0.65625 1.5671 1.4182 2.877 1.6632 6.0625 1.125 4.5445-0.76779 4.826-1.1479 2.3125-3.2188-1.7982-1.4816-1.1344-1.4352 3.1562 0.28125 1.5364 0.61464 1.7942 0.43046 1.2812-0.90625-0.47335-1.2335-0.09232-1.6562 1.4375-1.6562 1.3926 0 1.9008-0.47443 1.5312-1.4375-0.30295-0.78947-0.03164-1.6615 0.625-1.9375 0.83817-0.3523 0.72423-0.92482-0.4375-1.875-1.5183-1.2418-1.4565-1.5326 0.75-3.6562 3.6024-3.4672 2.9333-4.1924-2.3438-2.5-13.123 4.2089-17.935 4.4599-21.156 1.0312-1.8254-1.943-1.9321-2.4719-0.71875-2.9375 0.81475-0.31265 2.8309-0.06753 4.5 0.5625 4.2741 1.6133 5.1876 0.00507 1.625-2.875-2.4981-2.0195-2.6654-2.3943-1-2.25 3.4979 0.30312 5.5-0.09459 5.5-1.125 0-0.55-0.78749-1.0276-1.75-1.0625-1.4172-0.05133-1.3657-0.24677 0.34375-0.9375 1.161-0.46911 2.3796-1.5538 2.7188-2.4375 0.53384-1.3912 0.33481-1.4543-1.5938-0.375-3.488 1.9522-24.329 1.6541-28.719-0.40625-3.0688-1.4403-3.2314-1.6472-1.1562-1.7188 1.8944-0.06529 2.2817-0.48166 1.8438-2.1562-0.49073-1.8765-0.38236-1.948 1.125-0.65625 2.1912 1.8777 5.1875 2.9262 5.1875 1.8125 0-0.48124 0.90001-0.66267 2-0.375 1.1182 0.29241 2 0.03055 2-0.59375 0-0.61415 1.125-1.0938 2.5-1.0938 3.3239 0 3.1592-0.99463-0.6875-4.1562l-3.2188-2.625 5.3438 0.84375c5.5112 0.87121 7.5171 0.50879 6.4688-1.1875-1.0243-1.6573 1.6627-3.875 4.6875-3.875 3.4074 0 3.8783-1.6513 0.65625-2.3438-1.2781-0.27468-0.73816-0.45011 1.25-0.375 2.2752 0.08595 3.4125-0.27059 3.25-1.0625-0.1375-0.67001 0.22642-1.2188 0.84375-1.2188 0.75501 0 0.717-0.51028-0.15625-1.5625-0.82794-0.9976-2.2333-1.3971-3.875-1.0625-1.4158 0.28853-2 0.29902-1.3125 0 2.3084-1.004 1.2862-2.6053-1.25-1.9688-2.0279 0.50898-2.34 0.31201-1.8125-1.0625 0.47172-1.2293 0.26626-1.4525-0.71875-0.84375-0.73882 0.45662-2.4891 0.91389-3.9062 1.0312s-3.6875 0.52504-5.0625 0.90625l-2.5 0.6875 2.75-2.3438c3.1777-2.7273 3.6388-4.3251 0.8125-2.8125-2.7888 1.4925-4.836 1.3673-3.2812-0.1875 2.2445-2.2445 1.359-4.0145-0.9375-1.875-1.1743 1.094-3.5314 2.6533-5.25 3.4688-6.1095 2.8992-22.594-1.048-22.594-5.4062 0-0.87141-0.55873-2.1212-1.2188-2.7812-0.80282-0.80282-0.82497-1.1875-0.09375-1.1875 0.60116 0 1.3393 0.67401 1.6562 1.5 0.36555 0.95259 1.7941 1.4511 3.875 1.375 1.8044-0.06601 4.2938 0.22085 5.5312 0.625 1.8484 0.60369 2.25 0.3361 2.25-1.375v-2.0625l3.4062 2c2.4486 1.4447 3.6111 1.7065 4.125 0.875 0.39386-0.63727 0.10172-1.5838-0.65625-2.0938-1.1874-0.7989 4.65-0.69233 8.625 0.15625 0.55 0.11741 2.0218-0.12687 3.2812-0.53125 2.1127-0.67832 2.151-0.88283 0.6875-2.5-1.4679-1.622-1.3875-1.7836 0.96875-2.375 2.8891-0.72511 3.465-2.5969 0.8125-2.6562-1.1026-0.02466-0.6401-0.53861 1.25-1.4062 1.65-0.75742 4.3229-2.4718 5.9375-3.8125l2.9062-2.4375-3.6562-0.6875c-2.0271-0.38028-3.6875-1.1207-3.6875-1.6562 0-0.56163-1.1638-0.70756-2.75-0.3125-2.4006 0.59789-2.6134 0.50849-1.5-0.84375 1.9308-2.345-0.94545-3.0606-3.9062-0.96875-1.3857 0.97904-4.393 1.7071-7.2812 1.75-3.939 0.05849-4.5004-0.13914-2.7812-0.90625 1.9444-0.86764 2.1367-1.6828 1.2812-5.5-0.04087-0.18236-1.5851 0.60513-3.4375 1.75s-4.8899 2.0684-6.75 2.0625c-6.2347-0.01996-16.966-4.174-23.781-9.2188-2.6241-1.9424-2.0682-2.3441 0.96875-0.71875 1.5744 0.84259 1.944 0.70306 1.9688-0.75 0.02903-1.7045 0.07805-1.7223 1.0625-0.03125 0.56708 0.97407 1.4368 1.5282 1.9375 1.2188s2.047 0.18264 3.4375 1.0938c2.501 1.6387 2.5161 1.6154 2.5312-1.2188 0.00842-1.5758 0.34592-2.3552 0.75-1.75 0.87519 1.3107 4.6531 3.4062 6.1562 3.4062 0.58616 0 1.1327-1.0125 1.1875-2.25 0.09462-2.1358 0.12115-2.1231 0.78125 0.25 0.38248 1.375 0.90603 2.293 1.1562 2.0625s1.3914 0.07749 2.5312 0.6875c1.6897 0.9043 2.3288 0.75695 3.4375-0.78125 0.74787-1.0376 1.7469-1.6354 2.2188-1.3438s0.54667-0.63141 0.1875-2.0625c-0.62509-2.4905-0.54003-2.5639 2.0938-1.5625 3.2511 1.236 4.2619 0.62298 2.5-1.5-1.0526-1.2683-0.94782-1.5 0.53125-1.5 1.6832 0 1.6601-0.10636 0.03125-1.9062-0.94607-1.0454-1.2936-2.1521-0.78125-2.4688s1.7168 0.30243 2.6875 1.375c1.524 1.684 2.5034 1.835 6.375 1.0625 0.20485-0.04087-0.10616-0.66814-0.71875-1.4062-1.3013-1.568-0.53053-2.6562 1.9062-2.6562 0.9474 0 2.7953-0.88705 4.0938-1.9688l2.375-1.9688-3-0.1875c-1.65-0.10383-4.1027-0.09035-5.4375 0.03125-2.1125 0.19246-2.2735 0.00881-1.125-1.375 2.1867-2.6348 0.6472-2.627-3.2188 0-4.192 2.8485-6.7166 3.3448-4.7188 0.9375 1.0568-1.2734 0.99751-1.4329-0.375-0.90625-1.9081 0.73222-2.1862-0.62626-0.46875-2.3438 2.5613-2.5613-0.15549-2.177-3.3125 0.46875-6.2156 5.2089-6.9787 5.3743-14 3.25-7.3613-2.2272-12.298-5.009-13.781-7.7812-0.9081-1.6968-0.70112-1.937 1.4688-1.8125 1.3689 0.07856 2.7 0.84205 2.9688 1.6875s1.4374 1.6004 2.5938 1.6875c1.6873 0.1271 1.9833-0.27145 1.5312-2-0.50136-1.9172-0.29017-1.8482 1.7812 0.5625 1.28 1.4896 3.3203 2.7188 4.5625 2.7188 1.9607 0 2.1926-0.38054 1.6875-2.9062-0.75695-3.7848 1.59-4.8298 4.0312-1.7812 1.6679 2.0827 7.2925 3.5456 7.3125 1.9062 0.00496-0.40634-1.4576-1.9398-3.25-3.4375-2.4854-2.0767-2.8273-2.7295-1.4688-2.75 0.97977-0.01479 2.0284 0.61566 2.3438 1.4375s0.95187 1.2808 1.4062 1 1.092-0.05897 1.4375 0.5 1.8336 1.0312 3.2812 1.0312c2.5196 0 2.5456-0.07312 0.6875-1.4375-1.8722-1.3747-1.8402-1.4634 0.875-2.5 1.5483-0.59108 3.3483-1.0743 4-1.0938s0.06251-0.67509-1.3125-1.4375c-2.4376-1.3516-2.4122-1.3812 1.375-1.0312 2.4534 0.22671 4.4094-0.15948 5.3125-1.0625 2.1983-2.1983 0.63989-3.4375-4.3125-3.4375-2.7664 0-4.2576-0.41216-3.875-1.0312 1.2598-2.0384-2.4321-2.0732-6.5938-0.0625-5.1004 2.4642-6.047 2.5892-5.2812 0.59375 0.36156-0.94221-0.01029-1.5-1-1.5s-1.3615-0.5578-1-1.5c0.67317-1.7542 0.32557-1.815-2.9688-0.5625-2.1428 0.81469-2.3789 0.68788-1.9375-1 0.52543-2.0092-1.1532-2.7121-2.25-0.9375-0.34478 0.55786-2.4624 1.9739-4.7188 3.125-3.627 1.8504-4.5642 1.9418-8.125 0.875-3.32-0.99471-3.7434-1.373-2.3438-2.1562 0.93388-0.52263 1.7188-1.6295 1.7188-2.4688 0-1.1837-1.0249-1.4656-4.5312-1.25-3.4112 0.20977-4.9805-0.21399-6.4375-1.6875-2.1945-2.2194-4.3165-10.148-2.9375-11 0.8527-0.527 1.3301 1.6037 0.96875 4.3438-0.09253 0.70167 0.78771 2.6226 1.9688 4.2812 1.7139 2.4069 2.4432 2.7727 3.5625 1.8438 0.77132-0.64014 1.4362-2.3361 1.5-3.7812 0.09173-2.0777 0.23973-2.2065 0.625-0.625 0.75699 3.1073 3.3524 5.5 5.9688 5.5 2.0434 0 2.2325-0.27698 1.3438-1.9375-1.3063-2.4408-1.3149-3.3559-0.03125-2.5625 0.55 0.33992 1 0.14497 1-0.4375s0.45001-1.0625 1-1.0625 1 0.63013 1 1.4062c0 1.7932 5.8427 6.7851 7.0625 6.0312 0.50343-0.31114 0.93751-1.4325 0.9375-2.5s0.44879-1.9375 1.0312-1.9375 0.79271-0.5625 0.4375-1.25 0.18744-0.23103 1.2188 1.0312 2.2194 1.9681 2.625 1.5625 1.7142-0.89215 2.9375-1.0625c2.7083-0.37715 6.75-2.3704 6.75-3.3438 0-0.39033-1.3383-1.2621-2.9688-1.9375s-2.8679-1.7461-2.75-2.375c0.11955-0.63736-1.1517-1.1942-2.8438-1.25-3.4983-0.11525-8.5897-2.4909-6.6875-3.125 0.68604-0.22868 1.25-1.0646 1.25-1.8438 0-1.5858-5.0002-1.9909-6.5625-0.53125-1.5115 1.4122-5.4375 2.3362-5.4375 1.2812 0-0.52744 1.139-1.2365 2.5625-1.5938 2.1326-0.53524 2.3725-0.92304 1.375-2.125-0.98711-1.1894-0.83915-1.4428 0.6875-1.4688 2.2276-0.03783 5.9897-2.6979 5.0938-3.5938-0.34518-0.34518-2.6853-0.84297-5.1875-1.125-5.0045-0.56407-4.9795-0.54802-3.5-3.3125 0.95943-1.7927 1.2016-1.8196 3.4062-0.375 2.2264 1.4588 2.4154 1.4091 3.0312-0.53125 0.3619-1.1402 1.0833-1.8154 1.5938-1.5s0.93751 0.11371 0.9375-0.46875 0.90001-1.0625 2-1.0625 2-0.64009 2-1.4062c0-1.529-2.1132-2.5938-5.0938-2.5938-2.2703 0-2.5758-1.8357-0.4375-2.6562 0.82184-0.31537 1.2843-0.90303 1.0312-1.3125s0.6624-1.3299 2.0312-2.0625c3.3704-1.8038 2.5366-3.4688-1.75-3.4688h-3.5312l2.5312-3.3125c1.9735-2.5858 2.2367-3.5556 1.2812-4.5-0.95208-0.94116-1.9214-0.42779-4.5 2.375-3.0575 3.3233-3.3752 3.4511-4.4375 1.75-0.63034-1.0093-1.5938-1.8125-2.125-1.8125-1.1888 0-4.3477 5.5955-5.0312 8.9375-0.50524 2.4703-9.7093 10.356-11.094 9.5-0.39445-0.24379-0.58881-2.9134-0.46875-5.9375s-0.17692-5.5-0.65625-5.5-0.7332-1.6614-0.5625-3.6875c0.25899-3.0739 0.76263-3.8189 3.0938-4.4375 2.4164-0.64125 2.7242-0.49868 2.2188 1.0938-0.91222 2.8741 1.527 3.6054 3.4688 1.0312 1.0266-1.361 1.9905-1.8721 2.375-1.25 0.68151 1.1027 4.6563 0.51981 4.6562-0.6875 0-0.9294-4.978-5.5864-5.8438-5.4688-0.36819 0.05005-1.4499-0.12492-2.4062-0.375-2.8217-0.7379-0.9864-2.1437 2-1.5312 5.0127 1.028 9.5311 0.83586 9.9688-0.4375 0.23632-0.6875-0.22778-1.25-1.0312-1.25s-2.0078-0.68105-2.6875-1.5-1.6373-1.2389-2.125-0.9375-0.87657 0.19496-0.875-0.25 1.3532-1.7125 3-2.8125c3.0279-2.0225 3.8595-3.5 1.9688-3.5-1.8212 0-8.3705 3.0289-9.25 4.2812-0.52044 0.74112-0.62089 0.35648-0.25-0.96875 0.3334-1.1912 0.17474-2.4295-0.34375-2.75-1.0884-0.67268-5.125 5.7598-5.125 8.1562 0 0.88523-0.29813 1.3269-0.65625 0.96875s-1.2808 0.10855-2.0312 1.0625c-1.189 1.5114-1.2893 1.1024-0.84375-3.1562 0.41392-3.9568 1.3532-5.8876 5-10.156 2.4774-2.8998 4.5313-5.9202 4.5312-6.7188 0-2.4031-5.0248-0.82299-6.0625 1.9062-1.651 4.3426-3.468 2.837-3.0938-2.5625 0.27311-3.9401-0.08199-5.4283-1.75-7.2188l-2.0938-2.2188zm-6.7812 35.094c0.45703 0.02732 1.5438 0.89516 2.7812 2.2812 2.0561 2.303 3 4.3809 3 6.6562 0 1.8259-0.1901 3.3438-0.40625 3.3438-0.53774 0-1.8265-3.0986-2.2812-5.4688-0.20551-1.0712-1.0319-2.6654-1.8438-3.5625s-1.4687-2.2567-1.4688-3c0-0.18581 0.06641-0.2591 0.21875-0.25zm-2.4375 14.688c1.9027 0.13955 6.5176 3.3238 7.25 5.25 1.3027 3.4263 0.56242 4.0652-1.6875 1.4375-0.98662-1.1523-2.3478-2.0938-3.0312-2.0938-1.1579 0-3.8884-3.8671-3.1562-4.4688 0.14141-0.11621 0.35319-0.14493 0.625-0.125zm27.312 8.1562c0.24049 0.00138 0.53274 0.04367 0.84375 0.125 1.6494 0.43133 1.2624 1.0252-2.5938 3.9688-2.4988 1.9073-5.4237 3.5463-6.4688 3.625s-1.875 0.4733-1.875 0.90625-0.50553 0.8125-1.0938 0.8125-0.92578-1.0127-0.75-2.25c0.27658-1.9472 0.84802-2.2199 4.0938-1.9375 2.8856 0.25108 3.75-0.03679 3.75-1.25 0-0.86714 0.67501-1.5625 1.5-1.5625s1.5-0.63274 1.5-1.4062c0-0.67527 0.37227-1.0354 1.0938-1.0312zm-11.594 14.312 2.3438 1.1562c1.2887 0.62782 3.4262 0.86349 4.75 0.53125 1.3631-0.34211 2.4063-0.17087 2.4062 0.40625 0 0.56048-0.43248 1.0312-0.9375 1.0312s-1.5644 0.23219-2.3438 0.53125-2.4843-0.40739-3.8125-1.5625l-2.4062-2.0938zm10.969 2.4688c0.22696 0.03346 0.5613 0.26623 1.0312 0.65625 1.1178 0.92769 1.5 0.94293 1.5 0.0625 0-0.6498 0.49169-0.86016 1.125-0.46875 0.79787 0.49311 0.58923 1.1289-0.6875 2.0625-2.5757 1.8834-3.4375 1.679-3.4375-0.78125 0-1.1083 0.09049-1.587 0.46875-1.5312zm15.062 3.6562c0.85746 0 1.3087 0.45 0.96875 1-0.79968 1.2939-2.5 1.2939-2.5 0 0-0.55 0.67379-1 1.5312-1zm-23.531 16c0.55 0 1 2.25 1 5 0 5.0699-0.15084 5.5054-1.3438 4.3125-1.0649-1.0649-0.75914-9.3125 0.34375-9.3125zm-7.625 13.344c0.35859-0.06029 0.625 0.15691 0.625 0.59375 0 0.58246-0.44999 1.0625-1 1.0625-1.2814 0-1.2814-0.70806 0-1.5 0.1375-0.08498 0.25547-0.13615 0.375-0.15625zm8.0625 2.125c0.05765-0.0052 0.15027 0.08074 0.21875 0.25 0.27392 0.67703 0.28479 2.027 0.03125 3s-0.47961 0.43125-0.5-1.2188c-0.01529-1.2375 0.07705-2.0156 0.25-2.0312zm-12.438 0.53125c0.55 0 1 0.19496 1 0.4375s-0.44999 0.72258-1 1.0625-0.99999 0.14496-1-0.4375 0.45001-1.0625 1-1.0625zm-5 2c0.55 0 1 0.19496 1 0.4375s-0.44999 0.72258-1 1.0625-0.99999 0.14495-1-0.4375 0.45001-1.0625 1-1.0625zm-20.812 0.03125c0.68372 0.06722 1.5326 0.51856 2.1875 1.3438 2.0273 2.5546 5.3877 2.8937 7.25 0.71875 1.6476-1.9243 3.998-1.9494 2.8125-0.03125-0.31644 0.51199 0.11252 0.9375 0.9375 0.9375s1.7851-0.45 2.125-1c0.807-1.3058 2.5-1.3137 2.5 0 0 0.56361-1.2375 1.513-2.75 2.0938s-5.3222 1.2797-8.4375 1.5625c-4.9623 0.45041-5.7987 0.27751-6.75-1.5-0.59721-1.1159-1.0625-2.5076-1.0625-3.0938 0-0.7608 0.50378-1.0985 1.1875-1.0312zm91.75 52.969c0.58246 0 1.0625 0.45 1.0625 1 0 1.2814-0.70805 1.2814-1.5 0-0.33992-0.55-0.14495-1 0.4375-1zm-83.594 12c0.61219 0-0.57264 0.9-2.625 2-3.6318 1.9465-5.7187 2.4888-5.7188 1.5 0-0.62079 6.8671-3.5 8.3438-3.5zm86.344 42.719c1.1017-0.00655 2.1974 0.10963 2.875 0.375 1.3663 0.53511 0.6942 0.76278-2.3125 0.8125-2.3375 0.03866-4.25-0.10162-4.25-0.3125 0-0.53056 1.8513-0.86409 3.6875-0.875zm22.375 5.4062c0.34739-0.01431 0.76406 0.04307 1.125 0.1875 0.79773 0.31922 0.53997 0.54576-0.625 0.59375-1.0542 0.04342-1.6448-0.19895-1.3125-0.53125 0.16615-0.16614 0.46511-0.23569 0.8125-0.25zm0.25 24.906c0.04487-0.01297 0.11875 0 0.1875 0 0.55 0 1.675 0.4356 2.5 0.96875s1.05 0.96874 0.5 0.96875-1.675-0.43558-2.5-0.96875c-0.72188-0.46652-1.0016-0.87797-0.6875-0.96875zm-174.19 40.406c0.47191-0.07035 0.60651 0.13734 0.34375 0.5625-0.33602 0.5437-1.0137 1-1.5312 1-1.4384 0-1.1387-0.74145 0.59375-1.4062 0.22248-0.08537 0.43645-0.1328 0.59375-0.15625zm16.156 8.5938 2.2812 2.4375 2.25 2.4375 1.7188-2.625c1.5638-2.3866 1.7802-2.4338 2.6875-0.8125 0.7447 1.3307 1.2008 1.4392 1.7812 0.5 0.55033-0.89045 0.95625-0.64129 1.4375 0.875 0.68342 2.1532 2.5625 3.0051 2.5625 1.1562 0-0.55 1.2375-1.0034 2.75-1h2.75l-3 1.5938c-1.9337 1.0196-4.5223 1.3922-7.25 1.0938-2.3275-0.25466-3.985-0.0438-3.6875 0.4375 0.78847 1.2758-0.70366 1.0431-3.7812-0.5625-1.5708-0.8195-2.8116-1.0026-3-0.4375-0.1778 0.53339-1.1432 0.65801-2.125 0.28125-1.6591-0.63667-1.6155-0.84595 0.4375-3.0312l2.1875-2.3438zm23.25 1.0938c0.21044-0.00139 0.41339 0.00238 0.59375 0.0625 0.74895 0.24965 0.28973 0.70889-1.0625 1.0625-1.6634 0.43497-2.0546 0.30456-1.3125-0.4375 0.43583-0.43583 1.1499-0.68333 1.7812-0.6875zm-10.156 41.219c0.35859-0.06029 0.625 0.15691 0.625 0.59375 0 0.58246-0.44999 1.0625-1 1.0625-1.2814 0-1.2814-0.70805 0-1.5 0.1375-0.08498 0.25547-0.13615 0.375-0.15625z"/>
 </g>
</svg>
